<svg width="684" height="472" viewBox="0 0 684 472" fill="none" xmlns="http://www.w3.org/2000/svg">
<path opacity="0.29" d="M386.89 64.2609C343.047 64.3196 300.846 51.8965 260.48 38.0957C220.115 24.2949 180.06 8.84085 137.032 2.29222C109.359 -1.9172 77.8919 -1.53026 56.2604 13.7538C35.4384 28.4574 29.4088 52.7935 26.4996 75.2769C24.3118 92.1908 23.303 109.943 31.4969 125.415C37.1863 136.155 46.9228 145.008 53.7852 155.244C77.7393 190.854 63.334 236.343 40.0544 272.78C29.139 289.875 16.3526 306.261 8.1 324.336C-0.152552 342.411 -3.53686 362.907 4.87992 380.747C13.2205 398.429 32.06 411.262 52.2778 420.027C93.3353 437.861 141.138 441.684 187.656 443.155C290.628 446.421 393.8 439.761 496.696 433.101C534.774 430.639 573.022 428.159 610.313 421.024C631.018 417.066 652.339 411.192 667.02 398.317C685.654 381.972 689.466 355.285 675.906 336.103C653.166 303.928 593.204 297.86 576.899 263.047C567.907 243.882 575.661 221.903 587.081 203.43C611.575 163.792 653.735 128.287 654.444 83.9537C654.931 53.5088 633.007 23.8083 600.26 10.5762C565.936 -3.28321 519.137 0.281314 495.089 26.1124C470.36 52.7231 425.602 64.2199 386.89 64.2609Z" fill="#4A2D4A"/>
<path d="M582.154 378.355C582.154 378.355 574.945 373.6 567.801 376.983C567.801 376.983 570.001 381.216 579.045 380.817L582.154 378.355Z" fill="#B7FFF7"/>
<path d="M583.069 378.607C583.069 378.607 585.262 386.956 579.761 392.637C579.761 392.637 576.453 389.195 579.761 380.765L583.069 378.607Z" fill="#B7FFF7"/>
<path d="M592.031 370.593C592.031 370.593 591.498 363.493 575.456 365.85C575.456 365.85 575.38 370.429 581.01 372.598C586.641 374.767 589.222 372.938 592.031 370.593Z" fill="#B7FFF7"/>
<path d="M593.04 370.546C593.04 370.546 599.821 372.721 593.773 387.759C593.773 387.759 589.298 386.762 588.494 380.776C587.691 374.791 590.072 372.727 593.04 370.546Z" fill="#B7FFF7"/>
<path d="M602.096 360.474C602.096 360.474 603.017 348.79 586.623 349.986C586.623 349.986 585.45 360.538 599.204 363.282L602.096 360.474Z" fill="#B7FFF7"/>
<path d="M612.93 347.283C612.93 347.283 610.683 334.039 594.295 337.985C594.295 337.985 594.237 349.434 610.255 350.437L612.93 347.283Z" fill="#B7FFF7"/>
<path d="M620.848 333.646C620.848 333.646 617.082 320.748 600.847 324.606C600.847 324.606 604.712 336.208 619.768 336.026L620.848 333.646Z" fill="#B7FFF7"/>
<path d="M628.367 320.326C628.367 320.326 624.689 306.942 609.011 310.946C609.011 310.946 614.243 323.662 627.329 322.589L628.367 320.326Z" fill="#B7FFF7"/>
<path d="M633.212 307.675C633.212 307.675 630.385 291.306 615.768 294.929C615.768 294.929 620.015 309.82 632.139 310.061L633.212 307.675Z" fill="#B7FFF7"/>
<path d="M637.757 292.39C637.757 292.39 634.361 275.893 619.575 280.665C619.575 280.665 625.37 296.26 636.707 294.647L637.757 292.39Z" fill="#B7FFF7"/>
<path d="M640.549 278.167C640.549 278.167 635.159 261.664 623.728 262.11C623.728 262.11 629.235 279.539 639.593 281.456L640.549 278.167Z" fill="#B7FFF7"/>
<path d="M642.356 264.285C642.356 264.285 636.49 244.422 627.188 245.952C627.188 245.952 631.247 261.136 642.027 267.38L642.356 264.285Z" fill="#B7FFF7"/>
<path d="M643.377 247.722C643.377 247.722 637.875 231.172 628.713 230.51C628.713 230.51 632.455 246.796 643.195 252.026L643.377 247.722Z" fill="#B7FFF7"/>
<path d="M644.485 232.268C644.485 232.268 637.628 215.7 631.581 215.325C631.581 215.325 634.561 231.641 643.898 234.989L644.485 232.268Z" fill="#B7FFF7"/>
<path d="M645.242 217.893C645.242 217.893 641.024 199.9 634.966 198.405C634.966 198.405 635.793 213.127 644.632 219.241L645.242 217.893Z" fill="#B7FFF7"/>
<path d="M647.529 199.062C647.529 199.062 643.095 184.716 638.186 182.529C638.186 182.529 639.153 199.443 646.397 202.568L647.529 199.062Z" fill="#B7FFF7"/>
<path d="M649.424 186.75L650.315 161.459C650.315 161.459 641.136 180.524 648.761 191.188L649.424 186.75Z" fill="#B7FFF7"/>
<path d="M656.509 161.594C656.509 161.594 663.119 143.126 664.721 142.094C664.721 142.094 651.758 154.078 653.025 169.491L656.509 161.594Z" fill="#B7FFF7"/>
<path d="M602.542 360.386C602.542 360.386 614.167 358.867 613.821 375.289C613.821 375.289 603.316 377.001 599.885 363.417L602.542 360.386Z" fill="#B7FFF7"/>
<path d="M613.481 346.837C613.481 346.837 626.912 346.796 625.798 363.605C625.798 363.605 614.519 365.621 610.8 350.015L613.481 346.837Z" fill="#B7FFF7"/>
<path d="M620.977 334.731C620.977 334.731 633.171 329.015 640.972 343.771C640.972 343.771 629.71 348.532 619.897 337.117L620.977 334.731Z" fill="#B7FFF7"/>
<path d="M628.637 320.449C628.637 320.449 641.124 314.37 648.456 328.78C648.456 328.78 635.446 333.259 627.604 322.73L628.637 320.449Z" fill="#B7FFF7"/>
<path d="M633.054 308.032C633.054 308.032 645.072 296.559 654.661 308.161C654.661 308.161 642.385 317.606 632.502 310.588L633.054 308.032Z" fill="#B7FFF7"/>
<path d="M637.077 291.998C637.077 291.998 649.166 280.272 658.679 292.537C658.679 292.537 645.113 302.169 636.643 294.46L637.077 291.998Z" fill="#B7FFF7"/>
<path d="M639.335 277.698C639.335 277.698 648.65 263.042 659.618 266.313C659.618 266.313 649.952 281.832 639.441 281.14L639.335 277.698Z" fill="#B7FFF7"/>
<path d="M642.08 264.191C642.08 264.191 651.465 245.735 660.345 248.948C660.345 248.948 653.576 263.136 641.84 267.304L642.08 264.191Z" fill="#B7FFF7"/>
<path d="M642.731 246.761C642.731 246.761 652.38 232.233 661.418 234.01C661.418 234.01 653.53 248.743 641.793 250.964L642.731 246.761Z" fill="#B7FFF7"/>
<path d="M643.482 231.946C643.482 231.946 650.96 215.642 657.037 215.53C657.037 215.53 653.447 231.717 643.986 234.713L643.482 231.946Z" fill="#B7FFF7"/>
<path d="M644.948 217.541C644.948 217.541 653.259 201.032 659.506 200.997C659.506 200.997 655.254 215.114 645.224 218.989L644.948 217.541Z" fill="#B7FFF7"/>
<path d="M646.198 200.094C646.198 200.094 652.415 186.434 657.565 184.886C657.565 184.886 654.456 201.536 646.884 203.717L646.198 200.094Z" fill="#B7FFF7"/>
<path d="M650.163 186.252L664.058 165.094C664.058 165.094 660.498 185.965 648.133 190.303L650.163 186.252Z" fill="#B7FFF7"/>
<path d="M659.7 163.3C659.7 163.3 675.847 152.161 676.434 150.361C676.434 150.361 668.222 165.961 652.972 168.717L659.7 163.3Z" fill="#B7FFF7"/>
<path d="M660.667 158.287C660.667 158.287 679.208 140.47 683.941 140.488C683.941 140.488 668.65 141.185 660.222 157.337L660.667 158.287Z" fill="#B7FFF7"/>
<path d="M646.379 202.738L647.054 202.826C650.538 175.57 655.617 159.442 661.354 157.466L661.131 156.821C655.048 158.932 649.934 174.814 646.379 202.738Z" fill="#444053"/>
<path d="M641.253 267.919L642.274 268.002C642.491 265.457 642.655 262.854 642.766 260.257C643.74 237.697 645.247 216.979 647.23 201.448L646.643 200.715C644.655 216.281 642.72 237.621 641.746 260.216C641.634 262.795 641.47 265.387 641.253 267.919Z" fill="#444053"/>
<path d="M563.127 391.359C563.303 391.282 581.268 383.262 599.914 364.138C610.839 352.937 619.916 340.075 626.807 326.031C635.429 308.483 640.684 286.92 642.444 265.973L641.382 266.471C637.423 313.49 616.009 345.618 598.982 363.118C580.518 382.072 562.751 390.01 562.575 390.086L563.127 391.359Z" fill="#444053"/>
<path d="M609.645 49.9678H46.0547C44.7231 49.9678 43.446 50.4965 42.5045 51.4377C41.5629 52.3788 41.0339 53.6553 41.0339 54.9863V69.6078H614.666V54.9863C614.666 53.6553 614.137 52.3788 613.195 51.4377C612.253 50.4965 610.976 49.9678 609.645 49.9678Z" fill="#0870FF"/>
<path d="M41.0339 69.6078V398.646C41.0339 401.33 42.1005 403.903 43.9991 405.801C45.8976 407.699 48.4726 408.765 51.1575 408.765H604.542C607.227 408.765 609.802 407.699 611.7 405.801C613.599 403.903 614.666 401.33 614.666 398.646V69.6078H41.0339Z" fill="white"/>
<path opacity="0.8" d="M63.0234 61.9863C64.3191 61.9863 65.3695 60.9364 65.3695 59.6413C65.3695 58.3461 64.3191 57.2962 63.0234 57.2962C61.7276 57.2962 60.6772 58.3461 60.6772 59.6413C60.6772 60.9364 61.7276 61.9863 63.0234 61.9863Z" fill="#8CCF4D"/>
<path opacity="0.05" d="M555.373 124.471H94.356V327.097H555.373V124.471Z" fill="#1B89CA"/>
<path d="M551.854 126.007H97.8752V324.166H551.854V126.007Z" fill="#0870FF"/>
<path d="M221.634 177.007C212.702 177.007 203.97 179.654 196.543 184.614C189.116 189.575 183.327 196.625 179.909 204.874C176.491 213.123 175.596 222.199 177.339 230.956C179.081 239.713 183.383 247.757 189.699 254.07C196.015 260.383 204.062 264.683 212.823 266.425C221.584 268.166 230.665 267.273 238.917 263.856C247.17 260.439 254.223 254.653 259.186 247.229C264.149 239.806 266.797 231.078 266.797 222.149C266.797 216.221 265.629 210.351 263.36 204.874C261.09 199.397 257.763 194.42 253.569 190.229C249.376 186.037 244.397 182.711 238.917 180.443C233.438 178.174 227.565 177.007 221.634 177.007ZM229.734 223.234V244.609H213.769V223.234C211.559 221.562 209.931 219.239 209.114 216.593C208.296 213.946 208.331 211.11 209.213 208.484C210.095 205.859 211.78 203.576 214.03 201.959C216.28 200.342 218.981 199.473 221.752 199.473C224.522 199.473 227.223 200.342 229.473 201.959C231.723 203.576 233.408 205.859 234.29 208.484C235.172 211.11 235.207 213.946 234.389 216.593C233.572 219.239 231.944 221.562 229.734 223.234Z" fill="#B7FFF7"/>
<path opacity="0.05" d="M221.634 177.007C212.702 177.007 203.97 179.654 196.543 184.614C189.116 189.575 183.327 196.625 179.909 204.874C176.491 213.123 175.596 222.199 177.339 230.956C179.081 239.713 183.383 247.757 189.699 254.07C196.015 260.383 204.062 264.683 212.823 266.425C221.584 268.167 230.665 267.273 238.917 263.856C247.17 260.439 254.223 254.653 259.186 247.229C264.149 239.806 266.797 231.078 266.797 222.149C266.797 216.221 265.629 210.351 263.36 204.874C261.09 199.397 257.763 194.42 253.569 190.229C249.376 186.037 244.397 182.711 238.917 180.443C233.438 178.174 227.565 177.007 221.634 177.007ZM229.734 223.234V244.609H213.769V223.234C211.559 221.562 209.931 219.239 209.114 216.593C208.296 213.946 208.331 211.11 209.213 208.484C210.095 205.859 211.78 203.576 214.03 201.959C216.28 200.342 218.981 199.473 221.752 199.473C224.522 199.473 227.223 200.342 229.473 201.959C231.723 203.576 233.408 205.859 234.29 208.484C235.172 211.11 235.207 213.946 234.389 216.593C233.572 219.239 231.944 221.562 229.734 223.234Z" fill="#1B89CA"/>
<path d="M221.634 164.109C210.15 164.109 198.923 167.513 189.374 173.89C179.825 180.268 172.382 189.333 167.987 199.938C163.592 210.544 162.442 222.214 164.683 233.473C166.923 244.731 172.454 255.073 180.575 263.19C188.695 271.307 199.042 276.835 210.306 279.075C221.57 281.314 233.245 280.165 243.855 275.772C254.466 271.379 263.535 263.94 269.915 254.395C276.296 244.85 279.701 233.629 279.701 222.149C279.701 206.756 273.583 191.993 262.694 181.108C251.804 170.224 237.035 164.109 221.634 164.109ZM232.045 223.545V251.023H211.516V223.545C208.675 221.395 206.58 218.408 205.529 215.004C204.477 211.601 204.522 207.953 205.656 204.576C206.79 201.199 208.957 198.264 211.85 196.184C214.743 194.104 218.217 192.986 221.781 192.986C225.345 192.986 228.818 194.104 231.712 196.184C234.605 198.264 236.772 201.199 237.906 204.576C239.04 207.953 239.085 211.601 238.033 215.004C236.981 218.408 234.887 221.395 232.045 223.545Z" fill="white"/>
<path d="M491.44 214.534H303.749V234.467H491.44V214.534Z" fill="white"/>
<path d="M491.44 250.882H450.969V270.816H491.44V250.882Z" fill="white"/>
<path d="M322.225 224.201H318.829L321.85 221.188C321.904 221.132 321.934 221.057 321.934 220.98C321.934 220.902 321.904 220.827 321.85 220.772C321.822 220.744 321.79 220.722 321.754 220.707C321.718 220.693 321.68 220.685 321.641 220.685C321.603 220.685 321.564 220.693 321.529 220.707C321.493 220.722 321.46 220.744 321.433 220.772L318.412 223.791V220.391C318.412 220.313 318.382 220.238 318.327 220.183C318.272 220.128 318.197 220.097 318.119 220.097C318.042 220.099 317.968 220.13 317.913 220.185C317.859 220.24 317.827 220.313 317.826 220.391V223.791L314.811 220.754C314.784 220.727 314.751 220.705 314.716 220.69C314.68 220.675 314.642 220.667 314.603 220.667C314.564 220.667 314.526 220.675 314.49 220.69C314.454 220.705 314.422 220.727 314.395 220.754C314.341 220.81 314.31 220.884 314.31 220.962C314.31 221.04 314.341 221.114 314.395 221.17L317.415 224.184H314.013C313.936 224.185 313.862 224.217 313.808 224.271C313.753 224.326 313.722 224.4 313.72 224.477C313.72 224.555 313.751 224.629 313.806 224.684C313.861 224.739 313.936 224.77 314.013 224.77H317.415L314.395 227.789C314.341 227.845 314.31 227.92 314.31 227.997C314.31 228.075 314.341 228.15 314.395 228.206C314.451 228.258 314.526 228.288 314.603 228.288C314.68 228.288 314.755 228.258 314.811 228.206L317.826 225.186V228.581C317.826 228.658 317.857 228.733 317.912 228.788C317.967 228.843 318.041 228.874 318.119 228.874C318.197 228.874 318.272 228.843 318.327 228.788C318.382 228.733 318.412 228.658 318.412 228.581V225.186L321.433 228.206C321.49 228.258 321.564 228.288 321.641 228.288C321.719 228.288 321.793 228.258 321.85 228.206C321.904 228.15 321.934 228.075 321.934 227.997C321.934 227.92 321.904 227.845 321.85 227.789L318.829 224.77H322.225C322.303 224.77 322.377 224.739 322.432 224.684C322.487 224.629 322.518 224.555 322.518 224.477C322.514 224.402 322.481 224.332 322.426 224.281C322.372 224.23 322.3 224.201 322.225 224.201Z" fill="#B7FFF7"/>
<path d="M334.542 224.201H331.146L334.167 221.188C334.221 221.132 334.251 221.057 334.251 220.98C334.251 220.902 334.221 220.827 334.167 220.772C334.139 220.744 334.107 220.722 334.071 220.707C334.036 220.693 333.997 220.685 333.958 220.685C333.92 220.685 333.881 220.693 333.846 220.707C333.81 220.722 333.778 220.744 333.75 220.772L330.73 223.791V220.391C330.73 220.313 330.699 220.238 330.644 220.183C330.589 220.128 330.514 220.097 330.436 220.097C330.359 220.099 330.285 220.13 330.231 220.185C330.176 220.24 330.145 220.313 330.143 220.391V223.791L327.128 220.754C327.101 220.727 327.069 220.705 327.033 220.69C326.997 220.675 326.959 220.667 326.92 220.667C326.881 220.667 326.843 220.675 326.807 220.69C326.772 220.705 326.739 220.727 326.712 220.754C326.658 220.81 326.627 220.884 326.627 220.962C326.627 221.04 326.658 221.114 326.712 221.17L329.733 224.184H326.331C326.253 224.185 326.18 224.217 326.125 224.271C326.07 224.326 326.039 224.4 326.037 224.477C326.037 224.555 326.068 224.629 326.123 224.684C326.178 224.739 326.253 224.77 326.331 224.77H329.733L326.712 227.789C326.658 227.845 326.627 227.92 326.627 227.997C326.627 228.075 326.658 228.15 326.712 228.206C326.768 228.258 326.843 228.288 326.92 228.288C326.997 228.288 327.072 228.258 327.128 228.206L330.143 225.186V228.581C330.143 228.658 330.174 228.733 330.229 228.788C330.284 228.843 330.359 228.874 330.436 228.874C330.514 228.874 330.589 228.843 330.644 228.788C330.699 228.733 330.73 228.658 330.73 228.581V225.186L333.75 228.206C333.807 228.258 333.881 228.288 333.958 228.288C334.036 228.288 334.11 228.258 334.167 228.206C334.221 228.15 334.251 228.075 334.251 227.997C334.251 227.92 334.221 227.845 334.167 227.789L331.146 224.77H334.542C334.62 224.77 334.694 224.739 334.749 224.684C334.804 224.629 334.835 224.555 334.835 224.477C334.831 224.402 334.798 224.332 334.743 224.281C334.689 224.23 334.617 224.201 334.542 224.201Z" fill="#B7FFF7"/>
<path d="M346.859 224.201H343.463L346.484 221.188C346.538 221.132 346.568 221.057 346.568 220.98C346.568 220.902 346.538 220.827 346.484 220.772C346.457 220.744 346.424 220.722 346.388 220.707C346.353 220.693 346.314 220.685 346.276 220.685C346.237 220.685 346.199 220.693 346.163 220.707C346.127 220.722 346.095 220.744 346.067 220.772L343.047 223.791V220.391C343.047 220.313 343.016 220.238 342.961 220.183C342.906 220.128 342.831 220.097 342.754 220.097C342.676 220.099 342.602 220.13 342.548 220.185C342.493 220.24 342.462 220.313 342.46 220.391V223.791L339.445 220.754C339.418 220.727 339.386 220.705 339.35 220.69C339.314 220.675 339.276 220.667 339.237 220.667C339.198 220.667 339.16 220.675 339.124 220.69C339.089 220.705 339.056 220.727 339.029 220.754C338.975 220.81 338.945 220.884 338.945 220.962C338.945 221.04 338.975 221.114 339.029 221.17L342.05 224.184H338.648C338.57 224.185 338.497 224.217 338.442 224.271C338.387 224.326 338.356 224.4 338.354 224.477C338.354 224.555 338.385 224.629 338.44 224.684C338.495 224.739 338.57 224.77 338.648 224.77H342.05L339.029 227.789C338.975 227.845 338.945 227.92 338.945 227.997C338.945 228.075 338.975 228.15 339.029 228.206C339.085 228.258 339.16 228.288 339.237 228.288C339.315 228.288 339.389 228.258 339.445 228.206L342.46 225.186V228.581C342.46 228.658 342.491 228.733 342.546 228.788C342.601 228.843 342.676 228.874 342.754 228.874C342.831 228.874 342.906 228.843 342.961 228.788C343.016 228.733 343.047 228.658 343.047 228.581V225.186L346.067 228.206C346.124 228.258 346.198 228.288 346.276 228.288C346.353 228.288 346.427 228.258 346.484 228.206C346.538 228.15 346.568 228.075 346.568 227.997C346.568 227.92 346.538 227.845 346.484 227.789L343.463 224.77H346.859C346.937 224.77 347.012 224.739 347.067 224.684C347.122 224.629 347.153 224.555 347.153 224.477C347.148 224.402 347.115 224.332 347.061 224.281C347.006 224.23 346.934 224.201 346.859 224.201Z" fill="#B7FFF7"/>
<path d="M359.177 224.201H355.781L358.801 221.188C358.855 221.132 358.886 221.057 358.886 220.98C358.886 220.902 358.855 220.827 358.801 220.772C358.774 220.744 358.742 220.722 358.706 220.707C358.67 220.693 358.632 220.685 358.593 220.685C358.554 220.685 358.516 220.693 358.48 220.707C358.445 220.722 358.412 220.744 358.385 220.772L355.364 223.791V220.391C355.364 220.313 355.333 220.238 355.278 220.183C355.223 220.128 355.149 220.097 355.071 220.097C354.994 220.099 354.92 220.13 354.865 220.185C354.81 220.24 354.779 220.313 354.778 220.391V223.791L351.763 220.754C351.736 220.727 351.703 220.705 351.667 220.69C351.632 220.675 351.593 220.667 351.555 220.667C351.516 220.667 351.478 220.675 351.442 220.69C351.406 220.705 351.374 220.727 351.346 220.754C351.292 220.81 351.262 220.884 351.262 220.962C351.262 221.04 351.292 221.114 351.346 221.17L354.367 224.184H350.965C350.888 224.185 350.814 224.217 350.759 224.271C350.705 224.326 350.673 224.4 350.672 224.477C350.672 224.555 350.703 224.629 350.758 224.684C350.813 224.739 350.887 224.77 350.965 224.77H354.367L351.346 227.789C351.292 227.845 351.262 227.92 351.262 227.997C351.262 228.075 351.292 228.15 351.346 228.206C351.403 228.258 351.477 228.288 351.555 228.288C351.632 228.288 351.706 228.258 351.763 228.206L354.778 225.186V228.581C354.778 228.658 354.809 228.733 354.864 228.788C354.919 228.843 354.993 228.874 355.071 228.874C355.149 228.874 355.223 228.843 355.278 228.788C355.333 228.733 355.364 228.658 355.364 228.581V225.186L358.385 228.206C358.441 228.258 358.516 228.288 358.593 228.288C358.67 228.288 358.745 228.258 358.801 228.206C358.855 228.15 358.886 228.075 358.886 227.997C358.886 227.92 358.855 227.845 358.801 227.789L355.781 224.77H359.177C359.254 224.77 359.329 224.739 359.384 224.684C359.439 224.629 359.47 224.555 359.47 224.477C359.465 224.402 359.433 224.332 359.378 224.281C359.323 224.23 359.251 224.201 359.177 224.201Z" fill="#B7FFF7"/>
<path d="M371.494 224.201H368.098L371.119 221.188C371.173 221.132 371.203 221.057 371.203 220.98C371.203 220.902 371.173 220.827 371.119 220.772C371.091 220.744 371.059 220.722 371.023 220.707C370.987 220.693 370.949 220.685 370.91 220.685C370.872 220.685 370.833 220.693 370.798 220.707C370.762 220.722 370.729 220.744 370.702 220.772L367.682 223.791V220.391C367.682 220.313 367.651 220.238 367.596 220.183C367.541 220.128 367.466 220.097 367.388 220.097C367.311 220.099 367.237 220.13 367.183 220.185C367.128 220.24 367.097 220.313 367.095 220.391V223.791L364.08 220.754C364.053 220.727 364.021 220.705 363.985 220.69C363.949 220.675 363.911 220.667 363.872 220.667C363.833 220.667 363.795 220.675 363.759 220.69C363.723 220.705 363.691 220.727 363.664 220.754C363.61 220.81 363.579 220.884 363.579 220.962C363.579 221.04 363.61 221.114 363.664 221.17L366.684 224.184H363.283C363.205 224.185 363.131 224.217 363.077 224.271C363.022 224.326 362.991 224.4 362.989 224.477C362.989 224.555 363.02 224.629 363.075 224.684C363.13 224.739 363.205 224.77 363.283 224.77H366.684L363.664 227.789C363.61 227.845 363.579 227.92 363.579 227.997C363.579 228.075 363.61 228.15 363.664 228.206C363.72 228.258 363.795 228.288 363.872 228.288C363.949 228.288 364.024 228.258 364.08 228.206L367.095 225.186V228.581C367.095 228.658 367.126 228.733 367.181 228.788C367.236 228.843 367.31 228.874 367.388 228.874C367.466 228.874 367.541 228.843 367.596 228.788C367.651 228.733 367.682 228.658 367.682 228.581V225.186L370.702 228.206C370.759 228.258 370.833 228.288 370.91 228.288C370.988 228.288 371.062 228.258 371.119 228.206C371.173 228.15 371.203 228.075 371.203 227.997C371.203 227.92 371.173 227.845 371.119 227.789L368.098 224.77H371.494C371.572 224.77 371.646 224.739 371.701 224.684C371.756 224.629 371.787 224.555 371.787 224.477C371.783 224.402 371.75 224.332 371.695 224.281C371.641 224.23 371.569 224.201 371.494 224.201Z" fill="#B7FFF7"/>
<path d="M383.811 224.201H380.415L383.436 221.188C383.49 221.132 383.52 221.057 383.52 220.98C383.52 220.902 383.49 220.827 383.436 220.772C383.409 220.744 383.376 220.722 383.34 220.707C383.305 220.693 383.266 220.685 383.228 220.685C383.189 220.685 383.15 220.693 383.115 220.707C383.079 220.722 383.047 220.744 383.019 220.772L379.999 223.791V220.391C379.999 220.313 379.968 220.238 379.913 220.183C379.858 220.128 379.783 220.097 379.705 220.097C379.628 220.099 379.554 220.13 379.5 220.185C379.445 220.24 379.414 220.313 379.412 220.391V223.791L376.397 220.754C376.37 220.727 376.338 220.705 376.302 220.69C376.266 220.675 376.228 220.667 376.189 220.667C376.15 220.667 376.112 220.675 376.076 220.69C376.041 220.705 376.008 220.727 375.981 220.754C375.927 220.81 375.897 220.884 375.897 220.962C375.897 221.04 375.927 221.114 375.981 221.17L379.002 224.184H375.6C375.522 224.185 375.449 224.217 375.394 224.271C375.339 224.326 375.308 224.4 375.306 224.477C375.306 224.555 375.337 224.629 375.392 224.684C375.447 224.739 375.522 224.77 375.6 224.77H379.002L375.981 227.789C375.927 227.845 375.897 227.92 375.897 227.997C375.897 228.075 375.927 228.15 375.981 228.206C376.037 228.258 376.112 228.288 376.189 228.288C376.266 228.288 376.341 228.258 376.397 228.206L379.412 225.186V228.581C379.412 228.658 379.443 228.733 379.498 228.788C379.553 228.843 379.628 228.874 379.705 228.874C379.783 228.874 379.858 228.843 379.913 228.788C379.968 228.733 379.999 228.658 379.999 228.581V225.186L383.019 228.206C383.076 228.258 383.15 228.288 383.228 228.288C383.305 228.288 383.379 228.258 383.436 228.206C383.49 228.15 383.52 228.075 383.52 227.997C383.52 227.92 383.49 227.845 383.436 227.789L380.415 224.77H383.811C383.889 224.77 383.964 224.739 384.019 224.684C384.074 224.629 384.104 224.555 384.104 224.477C384.1 224.402 384.067 224.332 384.013 224.281C383.958 224.23 383.886 224.201 383.811 224.201Z" fill="#B7FFF7"/>
<path d="M396.129 224.201H392.732L395.753 221.188C395.807 221.132 395.837 221.057 395.837 220.98C395.837 220.902 395.807 220.827 395.753 220.772C395.726 220.744 395.693 220.722 395.658 220.707C395.622 220.693 395.584 220.685 395.545 220.685C395.506 220.685 395.468 220.693 395.432 220.707C395.396 220.722 395.364 220.744 395.337 220.772L392.316 223.791V220.391C392.316 220.313 392.285 220.238 392.23 220.183C392.175 220.128 392.101 220.097 392.023 220.097C391.945 220.099 391.872 220.13 391.817 220.185C391.762 220.24 391.731 220.313 391.73 220.391V223.791L388.715 220.754C388.687 220.727 388.655 220.705 388.619 220.69C388.584 220.675 388.545 220.667 388.506 220.667C388.468 220.667 388.429 220.675 388.394 220.69C388.358 220.705 388.326 220.727 388.298 220.754C388.244 220.81 388.214 220.884 388.214 220.962C388.214 221.04 388.244 221.114 388.298 221.17L391.319 224.184H387.917C387.84 224.185 387.766 224.217 387.711 224.271C387.657 224.326 387.625 224.4 387.624 224.477C387.624 224.555 387.655 224.629 387.71 224.684C387.765 224.739 387.839 224.77 387.917 224.77H391.319L388.298 227.789C388.244 227.845 388.214 227.92 388.214 227.997C388.214 228.075 388.244 228.15 388.298 228.206C388.355 228.258 388.429 228.288 388.506 228.288C388.584 228.288 388.658 228.258 388.715 228.206L391.73 225.186V228.581C391.73 228.658 391.76 228.733 391.815 228.788C391.87 228.843 391.945 228.874 392.023 228.874C392.101 228.874 392.175 228.843 392.23 228.788C392.285 228.733 392.316 228.658 392.316 228.581V225.186L395.337 228.206C395.393 228.258 395.468 228.288 395.545 228.288C395.622 228.288 395.697 228.258 395.753 228.206C395.807 228.15 395.837 228.075 395.837 227.997C395.837 227.92 395.807 227.845 395.753 227.789L392.732 224.77H396.129C396.206 224.77 396.281 224.739 396.336 224.684C396.391 224.629 396.422 224.555 396.422 224.477C396.417 224.402 396.384 224.332 396.33 224.281C396.275 224.23 396.203 224.201 396.129 224.201Z" fill="#B7FFF7"/>
<path d="M408.446 224.201H405.05L408.07 221.188C408.124 221.132 408.155 221.057 408.155 220.98C408.155 220.902 408.124 220.827 408.07 220.772C408.043 220.744 408.011 220.722 407.975 220.707C407.939 220.693 407.901 220.685 407.862 220.685C407.823 220.685 407.785 220.693 407.749 220.707C407.714 220.722 407.681 220.744 407.654 220.772L404.633 223.791V220.391C404.633 220.313 404.602 220.238 404.547 220.183C404.492 220.128 404.418 220.097 404.34 220.097C404.263 220.099 404.189 220.13 404.134 220.185C404.08 220.24 404.048 220.313 404.047 220.391V223.791L401.032 220.754C401.005 220.727 400.972 220.705 400.936 220.69C400.901 220.675 400.862 220.667 400.824 220.667C400.785 220.667 400.747 220.675 400.711 220.69C400.675 220.705 400.643 220.727 400.615 220.754C400.561 220.81 400.531 220.884 400.531 220.962C400.531 221.04 400.561 221.114 400.615 221.17L403.636 224.184H400.234C400.157 224.185 400.083 224.217 400.028 224.271C399.974 224.326 399.942 224.4 399.941 224.477C399.941 224.555 399.972 224.629 400.027 224.684C400.082 224.739 400.156 224.77 400.234 224.77H403.636L400.615 227.789C400.561 227.845 400.531 227.92 400.531 227.997C400.531 228.075 400.561 228.15 400.615 228.206C400.672 228.258 400.746 228.288 400.824 228.288C400.901 228.288 400.975 228.258 401.032 228.206L404.047 225.186V228.581C404.047 228.658 404.078 228.733 404.133 228.788C404.188 228.843 404.262 228.874 404.34 228.874C404.418 228.874 404.492 228.843 404.547 228.788C404.602 228.733 404.633 228.658 404.633 228.581V225.186L407.654 228.206C407.71 228.258 407.785 228.288 407.862 228.288C407.939 228.288 408.014 228.258 408.07 228.206C408.124 228.15 408.155 228.075 408.155 227.997C408.155 227.92 408.124 227.845 408.07 227.789L405.05 224.77H408.446C408.523 224.77 408.598 224.739 408.653 224.684C408.708 224.629 408.739 224.555 408.739 224.477C408.734 224.402 408.702 224.332 408.647 224.281C408.593 224.23 408.521 224.201 408.446 224.201Z" fill="#B7FFF7"/>
<path d="M420.763 224.201H417.367L420.388 221.188C420.442 221.132 420.472 221.057 420.472 220.98C420.472 220.902 420.442 220.827 420.388 220.772C420.36 220.744 420.328 220.722 420.292 220.707C420.256 220.693 420.218 220.685 420.179 220.685C420.141 220.685 420.102 220.693 420.067 220.707C420.031 220.722 419.998 220.744 419.971 220.772L416.951 223.791V220.391C416.951 220.313 416.92 220.238 416.865 220.183C416.81 220.128 416.735 220.097 416.657 220.097C416.58 220.099 416.506 220.13 416.452 220.185C416.397 220.24 416.366 220.313 416.364 220.391V223.791L413.349 220.754C413.322 220.727 413.29 220.705 413.254 220.69C413.218 220.675 413.18 220.667 413.141 220.667C413.102 220.667 413.064 220.675 413.028 220.69C412.992 220.705 412.96 220.727 412.933 220.754C412.879 220.81 412.848 220.884 412.848 220.962C412.848 221.04 412.879 221.114 412.933 221.17L415.953 224.184H412.552C412.474 224.185 412.401 224.217 412.346 224.271C412.291 224.326 412.26 224.4 412.258 224.477C412.258 224.555 412.289 224.629 412.344 224.684C412.399 224.739 412.474 224.77 412.552 224.77H415.953L412.933 227.789C412.879 227.845 412.848 227.92 412.848 227.997C412.848 228.075 412.879 228.15 412.933 228.206C412.989 228.258 413.064 228.288 413.141 228.288C413.218 228.288 413.293 228.258 413.349 228.206L416.364 225.186V228.581C416.364 228.658 416.395 228.733 416.45 228.788C416.505 228.843 416.58 228.874 416.657 228.874C416.735 228.874 416.81 228.843 416.865 228.788C416.92 228.733 416.951 228.658 416.951 228.581V225.186L419.971 228.206C420.028 228.258 420.102 228.288 420.179 228.288C420.257 228.288 420.331 228.258 420.388 228.206C420.442 228.15 420.472 228.075 420.472 227.997C420.472 227.92 420.442 227.845 420.388 227.789L417.367 224.77H420.763C420.841 224.77 420.915 224.739 420.97 224.684C421.025 224.629 421.056 224.555 421.056 224.477C421.052 224.402 421.019 224.332 420.964 224.281C420.91 224.23 420.838 224.201 420.763 224.201Z" fill="#B7FFF7"/>
<path d="M433.08 224.201H429.684L432.705 221.188C432.759 221.132 432.789 221.057 432.789 220.98C432.789 220.902 432.759 220.827 432.705 220.772C432.678 220.744 432.645 220.722 432.609 220.707C432.574 220.693 432.535 220.685 432.497 220.685C432.458 220.685 432.42 220.693 432.384 220.707C432.348 220.722 432.316 220.744 432.288 220.772L429.268 223.791V220.391C429.268 220.313 429.237 220.238 429.182 220.183C429.127 220.128 429.052 220.097 428.974 220.097C428.897 220.099 428.823 220.13 428.769 220.185C428.714 220.24 428.683 220.313 428.681 220.391V223.791L425.666 220.754C425.639 220.727 425.607 220.705 425.571 220.69C425.535 220.675 425.497 220.667 425.458 220.667C425.419 220.667 425.381 220.675 425.345 220.69C425.31 220.705 425.277 220.727 425.25 220.754C425.196 220.81 425.166 220.884 425.166 220.962C425.166 221.04 425.196 221.114 425.25 221.17L428.271 224.184H424.869C424.791 224.185 424.718 224.217 424.663 224.271C424.608 224.326 424.577 224.4 424.575 224.477C424.575 224.555 424.606 224.629 424.661 224.684C424.716 224.739 424.791 224.77 424.869 224.77H428.271L425.25 227.789C425.196 227.845 425.166 227.92 425.166 227.997C425.166 228.075 425.196 228.15 425.25 228.206C425.306 228.258 425.381 228.288 425.458 228.288C425.535 228.288 425.61 228.258 425.666 228.206L428.681 225.186V228.581C428.681 228.658 428.712 228.733 428.767 228.788C428.822 228.843 428.897 228.874 428.974 228.874C429.052 228.874 429.127 228.843 429.182 228.788C429.237 228.733 429.268 228.658 429.268 228.581V225.186L432.288 228.206C432.345 228.258 432.419 228.288 432.497 228.288C432.574 228.288 432.648 228.258 432.705 228.206C432.759 228.15 432.789 228.075 432.789 227.997C432.789 227.92 432.759 227.845 432.705 227.789L429.684 224.77H433.08C433.158 224.77 433.233 224.739 433.288 224.684C433.343 224.629 433.373 224.555 433.373 224.477C433.369 224.402 433.336 224.332 433.282 224.281C433.227 224.23 433.155 224.201 433.08 224.201Z" fill="#B7FFF7"/>
<path d="M445.397 224.201H442.001L445.022 221.188C445.076 221.132 445.106 221.057 445.106 220.98C445.106 220.902 445.076 220.827 445.022 220.772C444.995 220.744 444.962 220.722 444.927 220.707C444.891 220.693 444.852 220.685 444.814 220.685C444.775 220.685 444.737 220.693 444.701 220.707C444.665 220.722 444.633 220.744 444.606 220.772L441.585 223.791V220.391C441.585 220.313 441.554 220.238 441.499 220.183C441.444 220.128 441.369 220.097 441.292 220.097C441.214 220.099 441.141 220.13 441.086 220.185C441.031 220.24 441 220.313 440.998 220.391V223.791L437.984 220.754C437.956 220.727 437.924 220.705 437.888 220.69C437.852 220.675 437.814 220.667 437.775 220.667C437.737 220.667 437.698 220.675 437.663 220.69C437.627 220.705 437.594 220.727 437.567 220.754C437.513 220.81 437.483 220.884 437.483 220.962C437.483 221.04 437.513 221.114 437.567 221.17L440.588 224.184H437.186C437.109 224.185 437.035 224.217 436.98 224.271C436.925 224.326 436.894 224.4 436.893 224.477C436.893 224.555 436.923 224.629 436.978 224.684C437.033 224.739 437.108 224.77 437.186 224.77H440.588L437.567 227.789C437.513 227.845 437.483 227.92 437.483 227.997C437.483 228.075 437.513 228.15 437.567 228.206C437.624 228.258 437.698 228.288 437.775 228.288C437.853 228.288 437.927 228.258 437.984 228.206L440.998 225.186V228.581C440.998 228.658 441.029 228.733 441.084 228.788C441.139 228.843 441.214 228.874 441.292 228.874C441.369 228.874 441.444 228.843 441.499 228.788C441.554 228.733 441.585 228.658 441.585 228.581V225.186L444.606 228.206C444.662 228.258 444.736 228.288 444.814 228.288C444.891 228.288 444.965 228.258 445.022 228.206C445.076 228.15 445.106 228.075 445.106 227.997C445.106 227.92 445.076 227.845 445.022 227.789L442.001 224.77H445.397C445.475 224.77 445.55 224.739 445.605 224.684C445.66 224.629 445.691 224.555 445.691 224.477C445.686 224.402 445.653 224.332 445.599 224.281C445.544 224.23 445.472 224.201 445.397 224.201Z" fill="#B7FFF7"/>
<path d="M539.824 295.521C539.807 294.812 539.719 294.107 539.56 293.416C539.032 291.435 537.841 289.037 535.882 288.439C533.86 287.82 531.906 286.995 530.052 285.977C529.7 279.692 531.143 273.26 529.571 267.169C528.985 264.941 528.017 262.807 527.759 260.527C527.436 257.689 528.21 254.664 527.078 252.049C526.187 249.985 524.228 248.531 522.122 247.769C520.016 247.007 517.747 246.802 515.512 246.597C512.696 246.368 503.582 245.289 500.403 247.804C500.183 247.975 499.986 248.172 499.816 248.391C499.746 248.487 499.683 248.589 499.628 248.696L499.599 248.743C499.535 248.865 499.482 248.992 499.441 249.124C499.396 249.267 499.363 249.414 499.341 249.563C499.341 249.61 499.341 249.657 499.341 249.704C499.341 249.751 499.341 249.909 499.341 250.015V250.173C499.341 250.279 499.341 250.384 499.341 250.495C499.341 250.607 499.341 250.578 499.341 250.619C499.382 251.146 499.458 251.674 499.458 252.196C499.465 252.455 499.441 252.715 499.388 252.97C499.193 253.661 498.862 254.307 498.414 254.869L498.309 255.021C498.244 255.115 498.18 255.203 498.121 255.297C498.062 255.391 498.016 255.461 497.969 255.543C497.922 255.625 497.875 255.678 497.834 255.754C497.777 255.851 497.726 255.951 497.681 256.053C497.681 256.112 497.617 256.165 497.593 256.223C497.52 256.382 497.461 256.547 497.417 256.716C497.28 257.225 497.268 257.76 497.382 258.275C497.54 258.933 497.812 259.558 498.186 260.122C498.332 260.362 498.491 260.597 498.655 260.831L499.065 261.388C498.989 261.932 498.948 262.481 498.942 263.03C498.943 264.866 499.36 266.678 500.162 268.329C500.965 269.98 502.132 271.428 503.576 272.563C503.808 275.039 503.783 277.532 503.5 280.002C503.447 280.518 503.382 281.04 503.312 281.556C503.242 282.072 503.189 282.412 503.118 282.84C502.26 282.963 501.385 282.897 500.555 282.647C500.172 282.476 499.781 282.325 499.382 282.195C497.675 281.767 495.933 283.467 494.244 282.951C494.244 283.033 494.197 283.11 494.168 283.186C493.815 282.967 493.41 282.847 492.995 282.84C491.992 282.793 491.177 282.066 490.449 281.38L488.215 279.275C488.069 279.147 487.939 279.001 487.827 278.842C487.707 278.614 487.617 278.371 487.558 278.12C487.182 276.907 486.273 275.94 485.393 275.019C485.227 274.809 485.005 274.649 484.754 274.556C484.657 274.541 484.558 274.541 484.461 274.556C484.401 274.474 484.336 274.396 484.267 274.321C484.115 274.147 483.953 273.983 483.78 273.829C482.713 272.844 482.607 272 481.681 270.898C480.872 269.846 480.139 268.74 479.487 267.585C479.411 266.97 479.305 266.336 479.176 265.697C478.88 264.234 478.45 262.802 477.892 261.418L476.718 258.82L476.584 258.955C475.733 257.689 474.824 256.997 474.009 257.161C472.642 257.443 471.968 260.093 472.185 263.558L472.654 267.075C472.654 267.163 472.695 267.251 472.718 267.339C472.634 267.756 472.591 268.18 472.589 268.605C472.589 269.098 473.047 269.461 473.287 269.901C473.672 270.497 473.876 271.191 473.874 271.9C473.844 272.152 473.768 272.393 473.756 272.639C473.788 273.19 473.98 273.719 474.308 274.163L477.24 279.088L477.827 280.12L477.862 280.167C478.047 280.527 478.317 280.836 478.648 281.069C478.763 282.303 479.09 283.507 479.616 284.628C479.716 284.851 479.827 285.062 479.944 285.273C480.733 286.569 481.661 287.774 482.713 288.867L484.109 290.432C485.487 291.968 486.866 293.51 488.361 294.929C488.897 295.498 489.543 295.951 490.262 296.26C490.613 296.4 490.996 296.446 491.371 296.391C491.746 296.336 492.099 296.184 492.397 295.949C492.397 296.676 492.397 297.403 492.397 298.13C492.614 298.143 492.825 298.215 493.006 298.336C493.187 298.458 493.332 298.626 493.426 298.822C493.521 299.019 493.561 299.237 493.543 299.455C493.525 299.672 493.449 299.88 493.323 300.059C492.092 303.219 490.848 306.408 488.983 309.24C490.299 310.019 491.52 310.949 492.619 312.013C493.333 312.803 493.967 313.661 494.514 314.575C494.567 315.009 494.608 315.437 494.631 315.865C495.065 322.853 492.361 329.788 489.939 336.449C489.241 338.336 488.478 340.312 488.537 342.276C488.077 342.559 487.638 342.875 487.223 343.22C487.704 344.475 487.517 345.594 487.464 346.937C487.446 347.742 487.281 348.537 486.977 349.282C486.722 349.799 486.44 350.302 486.132 350.789C484.613 353.468 484.279 356.651 483.974 359.712C483.792 361.558 484.508 363.816 483.669 365.469C482.22 368.306 480.936 371.332 480.736 374.486C480.729 375.195 480.639 375.902 480.466 376.59C480.285 377.177 479.962 377.675 479.798 378.25C479.629 379.019 479.589 379.812 479.68 380.595C479.792 383.405 479.374 386.211 478.449 388.867C477.716 390.96 476.906 393.199 477.481 395.351C476.066 396.837 475.192 398.755 475 400.797C474.985 401.32 474.922 401.84 474.812 402.351C474.633 402.874 474.397 403.375 474.108 403.846C472.928 405.995 472.375 408.433 472.513 410.881C470.753 413.267 469.874 416.211 469.352 419.136C468.83 422.062 468.601 425.04 467.932 427.93C467.041 431.753 465.428 435.616 465.111 439.532C463.211 440.746 462.389 443.097 462.026 445.319C461.662 447.541 461.603 449.874 460.671 451.926C460.19 452.993 459.498 453.949 459.04 455.039C458.719 455.907 458.484 456.805 458.336 457.718C458.055 459.149 457.809 460.744 458.155 462.115C457.657 462.642 457.077 463.084 456.436 463.423C456.53 463.059 456.606 462.696 456.671 462.327C455.157 463.698 452.412 463.218 451.204 464.865C450.841 465.396 450.7 466.047 450.809 466.681C450.919 467.315 451.271 467.881 451.791 468.26C452.169 468.49 452.578 468.666 453.005 468.781C455.938 469.719 458.952 470.663 461.967 470.165C462.324 470.127 462.669 470.017 462.982 469.843C463.374 469.554 463.697 469.181 463.926 468.752C464.378 468.037 464.829 467.322 465.275 466.606C466.355 466.929 467.454 467.185 468.566 467.374C468.677 468.312 468.759 469.25 468.8 470.188C469.387 470.306 470.173 470.341 470.448 469.796C470.532 469.589 470.566 469.367 470.548 469.145C470.548 468.729 470.607 468.178 470.642 467.615H470.759C472.549 467.687 474.329 467.327 475.95 466.565C475.322 461.371 477.393 456.294 479.188 451.381C481.082 446.21 482.707 440.945 484.343 435.681C485.516 431.975 486.813 428.387 487.962 424.676C489.409 419.986 490.862 415.296 492.32 410.606C492.954 408.542 493.593 406.502 494.32 404.45C495.851 400.298 497.668 396.257 499.758 392.355C500.344 391.247 500.931 390.151 501.412 389.002C501.998 387.601 502.415 386.135 502.884 384.687C503.906 381.715 505.137 378.82 506.567 376.022C506.608 375.946 506.638 375.875 506.679 375.805C507.154 377.745 507.629 379.715 507.946 381.667C508.374 384.061 508.408 386.509 508.045 388.914C507.764 390.549 507.23 392.168 507.294 393.827C507.382 396.119 508.608 398.2 509.212 400.411C509.602 402.065 509.822 403.754 509.869 405.452C510.034 408.091 511.465 411.051 510.456 413.496C507.318 421.241 508.837 429.988 507.048 438.119C506.127 442.294 503.306 446.216 503.529 450.484C503.685 453.513 503.951 456.534 504.327 459.548C504.417 460.498 504.665 461.428 505.06 462.297C505.294 462.755 505.562 463.194 505.863 463.61C505.605 463.71 505.388 463.974 505.201 464.531C504.72 465.997 505.201 467.814 506.503 468.635C507.033 468.918 507.605 469.116 508.198 469.221C508.995 469.448 509.82 469.562 510.649 469.561C510.907 469.547 511.164 469.516 511.418 469.467C512.324 469.848 513.25 470.181 514.192 470.464C514.192 470.704 514.239 470.945 514.268 471.185C514.27 471.311 514.298 471.435 514.35 471.549C514.403 471.663 514.479 471.765 514.573 471.848C514.72 471.916 514.882 471.944 515.043 471.93H518.228C518.228 471.666 518.228 471.396 518.228 471.132C518.592 471.17 518.96 471.131 519.309 471.018C519.657 470.905 519.978 470.72 520.251 470.476C520.533 470.117 520.733 469.701 520.838 469.256C521.706 466.313 522.568 463.368 523.424 460.421C524.451 457.164 524.878 453.747 524.685 450.337C523.553 439.532 526.04 428.692 525.231 417.858C524.744 411.346 525.079 404.799 526.228 398.37C526.492 396.916 526.814 395.439 526.932 393.991C527.19 391.259 526.873 388.498 527.067 385.783C527.131 384.833 527.26 383.889 527.377 382.946C528.181 377.087 528.602 371.183 528.639 365.27C528.621 363.31 528.499 361.353 528.275 359.407C528.886 359.251 529.441 358.926 529.876 358.469C530.398 357.789 530.263 356.833 530.257 355.965C530.257 353.89 531.131 351.932 531.835 349.974C532.738 347.273 533.479 344.52 534.052 341.731C534.658 339.483 534.989 337.17 535.038 334.842C535.038 334.608 535.026 334.373 535.002 334.139C535.223 333.985 535.408 333.785 535.542 333.552C535.695 333.209 535.79 332.842 535.824 332.468C536.035 330.973 536.252 329.472 536.463 327.971C536.619 326.896 536.774 325.823 536.926 324.752L538.791 311.743C538.95 310.612 539.114 309.486 539.272 308.36L539.759 304.995C539.812 304.596 539.871 304.198 539.912 303.823C541.343 301.431 539.976 298.241 539.824 295.521ZM524.263 344.228C523.571 342.587 522.926 340.904 523.09 339.134H523.025C523.18 338.589 523.153 338.009 522.949 337.48C522.767 337.052 522.451 336.689 522.257 336.261C522.049 335.739 521.942 335.182 521.94 334.619C521.795 331.054 522.076 327.483 522.779 323.984C522.855 323.574 522.937 323.158 523.014 322.747C523.26 322.605 523.485 322.43 523.682 322.226C523.991 321.874 524.246 321.479 524.439 321.053C525.102 319.722 525.706 318.368 526.263 316.99C526.445 316.545 526.709 316.029 527.16 315.917C527.067 319.347 527.419 322.847 526.023 325.943C525.757 326.442 525.56 326.974 525.436 327.525C525.307 328.399 525.671 329.284 525.542 330.152C525.477 330.603 525.284 331.02 525.207 331.465C525.149 331.684 525.15 331.914 525.21 332.132C525.27 332.351 525.386 332.549 525.547 332.708C525.625 332.763 525.71 332.806 525.8 332.837C525.764 333.072 525.735 333.312 525.712 333.541C525.665 334.021 525.641 334.473 525.612 334.754C525.477 336.188 525.424 337.629 525.454 339.069C525.454 340.623 525.512 342.176 525.489 343.759C525.511 344.214 525.435 344.668 525.266 345.09C525.15 345.308 524.999 345.506 524.82 345.676C524.65 345.149 524.462 344.686 524.263 344.228Z" fill="url(#paint0_linear_0_1)"/>
<path d="M477.963 276.203C479.753 275.837 480.362 271.433 479.324 266.367C478.285 261.302 475.992 257.492 474.203 257.859C472.413 258.225 471.804 262.629 472.842 267.695C473.881 272.76 476.173 276.57 477.963 276.203Z" fill="#FBBEBE"/>
<path d="M505.294 464.642C504.813 466.096 505.294 467.914 506.597 468.705C507.124 468.986 507.692 469.184 508.28 469.291C509.076 469.516 509.899 469.629 510.726 469.626C511.74 469.579 512.714 469.18 513.729 469.039C513.846 469.01 513.97 469.027 514.075 469.086C514.126 469.141 514.164 469.206 514.186 469.277C514.208 469.348 514.214 469.423 514.204 469.497C514.215 470.073 514.258 470.649 514.333 471.22C514.334 471.346 514.361 471.47 514.414 471.584C514.467 471.699 514.543 471.8 514.638 471.883C514.784 471.951 514.946 471.979 515.107 471.965H518.286C518.358 469.173 518.052 466.385 517.377 463.675C517.333 463.468 517.254 463.269 517.142 463.089C516.873 462.793 516.518 462.589 516.128 462.502C515.351 462.179 514.511 462.033 513.67 462.074C512.644 462.209 511.787 462.872 510.913 463.423C510.04 463.974 508.849 464.461 507.787 464.179C506.726 463.898 505.84 463.012 505.294 464.642Z" fill="#3F3D56"/>
<path d="M458.618 462.069C457.724 463.025 456.628 463.77 455.409 464.249L454.87 464.507C454.795 464.536 454.731 464.587 454.688 464.654C454.678 464.7 454.678 464.747 454.688 464.792C454.698 464.838 454.718 464.881 454.747 464.918C455.196 465.612 455.859 466.141 456.636 466.423C457.413 466.706 458.262 466.727 459.052 466.483C459.401 466.396 459.725 466.227 459.996 465.991C460.443 465.461 460.699 464.796 460.723 464.103C460.901 463.388 460.87 462.638 460.635 461.94C459.82 460.105 459.521 460.937 458.618 462.069Z" fill="#FBBEBE"/>
<path d="M470.806 469.291C470.824 469.513 470.79 469.736 470.706 469.942C470.431 470.482 469.662 470.452 469.064 470.335C468.973 468.346 468.732 466.366 468.343 464.414C467.205 464.361 466.384 465.44 465.774 466.407L464.202 468.899C463.974 469.328 463.654 469.7 463.263 469.989C462.949 470.161 462.604 470.27 462.249 470.312C459.246 470.81 456.213 469.866 453.316 468.928C452.889 468.813 452.48 468.64 452.102 468.412C451.584 468.033 451.235 467.468 451.125 466.836C451.016 466.204 451.156 465.554 451.515 465.023C452.729 463.382 455.457 463.851 456.97 462.491C456.812 463.448 456.552 464.385 456.196 465.287C458.219 464.982 459.58 463.13 461.21 461.893C461.62 461.545 462.113 461.311 462.642 461.213C463.037 461.179 463.435 461.221 463.815 461.336C465.695 461.809 467.454 462.674 468.976 463.874C469.592 464.361 470.554 465.047 470.824 465.797C471.111 466.694 470.806 468.336 470.806 469.291Z" fill="#3F3D56"/>
<path d="M511.154 275.858C517.846 275.858 523.272 270.435 523.272 263.745C523.272 257.056 517.846 251.633 511.154 251.633C504.461 251.633 499.036 257.056 499.036 263.745C499.036 270.435 504.461 275.858 511.154 275.858Z" fill="#FBBEBE"/>
<path d="M535.026 335.258C534.977 337.574 534.648 339.875 534.046 342.112C533.473 344.89 532.732 347.631 531.829 350.32C531.131 352.272 530.257 354.23 530.263 356.3C530.263 357.161 530.404 358.117 529.876 358.797C529.406 359.275 528.813 359.613 528.163 359.776C527.839 359.862 527.539 360.023 527.289 360.246C527.038 360.469 526.843 360.748 526.72 361.06C526.17 360.238 525.758 359.331 525.5 358.375C524.449 355.154 523.471 351.916 522.568 348.661C522.485 348.473 522.449 348.268 522.464 348.064C522.478 347.86 522.542 347.662 522.65 347.488C522.799 347.359 522.972 347.261 523.16 347.201C523.761 346.956 524.312 346.602 524.785 346.157C525.007 345.96 525.19 345.724 525.325 345.459C525.495 345.039 525.573 344.587 525.553 344.135C525.553 342.581 525.553 341.033 525.512 339.48C525.488 338.045 525.542 336.611 525.676 335.182C525.676 334.901 525.729 334.449 525.776 333.969C525.864 333.048 526.04 331.981 526.539 331.624C527.284 331.125 529.512 331.794 530.357 331.911C531.812 332.11 533.29 332.345 534.709 332.62C534.915 333.485 535.022 334.37 535.026 335.258Z" fill="#3F3D56"/>
<path d="M486.097 277.306C485.628 278.244 484.502 278.695 483.634 279.287L480.66 281.327C480.461 281.506 480.228 281.643 479.975 281.73C479.722 281.817 479.454 281.851 479.188 281.832C478.946 281.742 478.724 281.606 478.536 281.429C478.347 281.253 478.196 281.041 478.091 280.806C478.093 280.79 478.093 280.774 478.091 280.759L477.475 279.727L474.542 274.814C474.216 274.374 474.027 273.848 473.997 273.301C473.997 273.049 474.085 272.815 474.108 272.563C474.116 271.855 473.912 271.16 473.522 270.569C473.287 270.13 472.818 269.766 472.83 269.274C472.807 268.627 472.919 267.982 473.158 267.38C473.466 266.823 473.907 266.352 474.443 266.008C474.718 265.809 475 265.621 475.293 265.422C475.449 265.316 475.621 265.236 475.803 265.187C476.29 265.088 476.771 265.492 477.264 265.51C479.381 266.929 480.197 269.614 481.862 271.548C482.801 272.651 482.895 273.495 483.956 274.48C484.126 274.632 484.291 274.796 484.449 274.966C484.659 275.195 484.836 275.452 484.977 275.729C485.17 276.233 486.338 276.825 486.097 277.306Z" fill="#3F3D56"/>
<path d="M506.896 275.863C507.77 277.71 508.45 279.739 508.198 281.767C508.146 282.317 507.972 282.848 507.687 283.321C506.843 284.616 505.072 284.851 503.529 284.927C503.204 284.9 502.877 284.938 502.567 285.038C502.256 285.139 501.969 285.301 501.722 285.513C501.516 285.813 501.415 286.172 501.436 286.535C501.456 286.898 501.596 287.244 501.834 287.518C502.33 288.047 502.945 288.449 503.629 288.691C506.069 289.764 508.702 290.649 511.353 290.403C512.585 290.286 513.782 289.928 515.007 289.746C516.344 289.602 517.687 289.527 519.031 289.523C520.626 289.465 522.216 289.307 523.805 289.148L528.017 288.732C528.247 288.735 528.47 288.654 528.644 288.503C528.955 288.14 528.556 287.606 528.169 287.331C525.935 285.678 523.09 284.54 521.817 282.054C521.231 280.882 521.049 279.487 520.615 278.22C520.181 276.954 519.489 275.811 519.219 274.521C519.075 273.389 519.01 272.249 519.025 271.109C519.04 269.959 518.621 268.845 517.852 267.99C517.013 267.21 515.799 267.011 514.661 266.964C511.858 266.841 508.872 267.509 506.884 269.485C506.35 270.018 505.893 270.657 505.341 271.138C504.79 271.619 504.039 271.76 504.403 272.393C504.767 273.026 505.482 273.419 505.869 273.976C506.261 274.577 506.604 275.208 506.896 275.863Z" fill="#FBBEBE"/>
<path d="M530.785 292.918C530.046 297.432 528.843 301.859 527.196 306.127C526.368 308.054 525.662 310.032 525.084 312.048C524.632 313.865 524.72 315.812 524.304 317.635C523.788 319.904 523.272 322.179 522.855 324.465C522.157 327.957 521.877 331.519 522.022 335.077C522.024 335.637 522.131 336.192 522.339 336.712C522.533 337.134 522.844 337.498 523.025 337.932C523.161 338.313 523.217 338.718 523.189 339.121C523.16 339.525 523.049 339.918 522.861 340.277C522.56 340.948 522.152 341.566 521.653 342.106C516.186 343.736 510.339 343.202 504.643 343.548C499.394 343.865 494.086 344.944 488.913 344.047C488.326 341.701 489.306 339.245 490.144 336.959C492.578 330.316 495.271 323.398 494.837 316.439C494.791 315.627 494.699 314.819 494.561 314.018C493.71 309.087 494.637 303.981 496.121 299.203C497.042 296.225 497.001 293.053 496.79 289.951C496.685 288.944 496.671 287.93 496.749 286.92C496.833 285.89 497.217 284.906 497.851 284.089C497.851 284.048 497.904 284.007 497.933 283.966C497.963 283.925 498.191 283.93 498.373 283.966C498.42 283.985 498.47 283.995 498.52 283.995C498.57 283.995 498.62 283.985 498.667 283.966L498.731 283.925C498.756 283.907 498.786 283.897 498.816 283.897C498.847 283.897 498.876 283.907 498.901 283.925C499.036 284.007 499.112 284.288 499.406 284.341C499.839 284.406 500.276 284.447 500.714 284.464C501.24 284.48 501.764 284.554 502.274 284.687H502.344C503.107 284.815 503.89 284.749 504.62 284.493C505.106 284.372 505.575 284.191 506.016 283.954C506.145 283.813 506.954 283.684 507.119 283.585C507.652 283.262 507.535 281.75 507.646 281.128C507.708 280.505 507.856 279.893 508.086 279.311C508.353 278.881 508.722 278.523 509.16 278.268C509.597 278.014 510.091 277.87 510.597 277.851C511.607 277.827 512.616 277.917 513.606 278.12C515.793 278.431 518.034 278.378 520.181 278.883C521.26 279.135 522.439 279.516 523.43 279.023C523.7 279.088 523.741 279.322 523.741 279.61C523.716 279.883 523.661 280.152 523.577 280.413C523.201 282.031 524.474 283.52 525.647 284.693C526.143 285.245 526.728 285.711 527.377 286.07C527.964 286.34 528.551 286.451 529.137 286.745C529.612 286.998 530.016 287.367 530.31 287.817C530.648 288.334 530.876 288.915 530.979 289.523C531.105 290.658 531.039 291.805 530.785 292.918Z" fill="white"/>
<path opacity="0.1" d="M530.785 292.918C530.046 297.432 528.843 301.859 527.196 306.127C526.368 308.054 525.662 310.032 525.084 312.048C524.632 313.865 524.72 315.812 524.304 317.635C523.788 319.904 523.272 322.179 522.855 324.465C522.732 324.536 522.603 324.6 522.474 324.659C521.744 325.007 520.971 325.255 520.175 325.397C518.745 325.57 517.297 325.523 515.881 325.257L507.511 324.137C504.168 323.686 500.608 323.14 498.127 320.877C496.749 319.634 495.845 317.993 494.854 316.41C494.809 315.598 494.716 314.79 494.578 313.989C493.728 309.058 494.655 303.952 496.139 299.174C497.059 296.195 497.018 293.024 496.807 289.922C496.703 288.915 496.689 287.901 496.766 286.891C496.851 285.86 497.234 284.876 497.869 284.06C498.04 284.009 498.214 283.97 498.391 283.942C498.509 283.918 498.628 283.903 498.749 283.895H498.919C499.116 283.896 499.313 283.92 499.505 283.966C499.905 284.093 500.297 284.244 500.678 284.417H500.749C501.252 284.583 501.78 284.658 502.309 284.64C503.083 284.64 503.881 284.517 504.655 284.464C505.611 284.315 506.59 284.49 507.435 284.962C507.98 285.4 508.498 285.872 508.984 286.375C509.571 286.836 510.231 287.195 510.937 287.436C515.986 289.363 521.587 289.245 526.55 287.108C527.027 286.837 527.568 286.699 528.116 286.709C528.521 286.789 528.905 286.953 529.243 287.19C529.594 287.395 529.941 287.595 530.298 287.776C530.636 288.293 530.864 288.874 530.967 289.483C531.101 290.63 531.04 291.791 530.785 292.918Z" fill="#1B89CA"/>
<path d="M535.894 289.037C533.558 288.324 531.314 287.34 529.207 286.106C528.869 285.87 528.486 285.706 528.081 285.625C527.531 285.618 526.989 285.756 526.509 286.023C521.548 288.16 515.948 288.278 510.902 286.352C510.197 286.108 509.537 285.749 508.948 285.291C508.461 284.789 507.944 284.317 507.4 283.878C505.47 282.629 502.801 284.095 500.643 283.291C500.26 283.121 499.869 282.97 499.47 282.84C497.763 282.412 496.027 284.112 494.349 283.596C493.725 285.292 493.264 287.043 492.971 288.826C492.733 290.873 492.605 292.932 492.59 294.993C492.59 296.23 492.531 297.467 492.59 298.704C492.797 298.738 492.994 298.815 493.17 298.929C493.345 299.043 493.495 299.192 493.61 299.367C493.687 299.571 493.719 299.79 493.703 300.008C493.687 300.225 493.623 300.437 493.517 300.627C492.291 303.776 491.047 306.959 489.188 309.779C490.498 310.56 491.715 311.488 492.813 312.546C494.866 314.715 495.874 317.758 498.092 319.763C500.59 322.02 504.151 322.571 507.476 323.017L515.846 324.137C517.264 324.402 518.713 324.451 520.145 324.283C520.94 324.139 521.711 323.888 522.439 323.539C522.914 323.34 523.348 323.054 523.717 322.695C524.027 322.344 524.282 321.948 524.474 321.522C525.137 320.197 525.741 318.843 526.298 317.471C526.492 316.984 526.785 316.416 527.313 316.375C530.421 313.572 533.354 310.7 536.463 307.897C537.712 306.862 538.833 305.681 539.8 304.38C541.343 302.099 539.941 298.869 539.8 296.113C539.783 295.408 539.695 294.707 539.536 294.02C539.032 292.021 537.847 289.629 535.894 289.037Z" fill="#FAFAFF"/>
<path opacity="0.1" d="M486.097 277.306C485.628 278.244 484.502 278.695 483.634 279.287L480.66 281.327C480.461 281.506 480.228 281.643 479.975 281.73C479.722 281.817 479.454 281.851 479.188 281.832C478.946 281.742 478.724 281.606 478.536 281.429C478.347 281.253 478.196 281.041 478.091 280.806C478.091 280.671 478.091 280.524 478.091 280.384C478.068 279.909 478.132 279.434 478.279 278.982C478.57 278.319 479.021 277.739 479.592 277.294C480.697 276.249 482.01 275.45 483.446 274.949C483.67 274.862 483.913 274.838 484.15 274.879C484.241 274.902 484.328 274.94 484.408 274.99C484.618 275.219 484.795 275.475 484.936 275.752C485.17 276.233 486.338 276.825 486.097 277.306Z" fill="#1B89CA"/>
<path d="M493.1 283.485C492.103 283.438 491.288 282.717 490.561 282.031L488.338 279.967C488.189 279.842 488.059 279.696 487.951 279.534C487.83 279.306 487.74 279.063 487.681 278.812C487.209 277.628 486.471 276.569 485.522 275.717C485.357 275.507 485.135 275.348 484.883 275.26C484.644 275.216 484.398 275.24 484.173 275.33C482.737 275.83 481.423 276.629 480.32 277.675C479.749 278.121 479.297 278.701 479.006 279.363C478.858 279.815 478.795 280.29 478.818 280.765C478.832 282.314 479.18 283.842 479.839 285.244C479.938 285.461 480.05 285.678 480.167 285.889C480.95 287.181 481.875 288.383 482.924 289.471L484.32 291.03C485.692 292.566 487.065 294.102 488.555 295.515C489.089 296.085 489.736 296.536 490.455 296.84C490.816 296.987 491.211 297.032 491.595 296.97C491.98 296.908 492.341 296.742 492.637 296.488C492.918 296.163 493.13 295.784 493.259 295.374C494.162 293.029 495.018 290.591 495.071 288.064C495.084 287.052 495.041 286.04 494.942 285.033C494.854 283.966 494.097 283.549 493.1 283.485Z" fill="white"/>
<path d="M528.644 365.563C528.61 371.46 528.191 377.349 527.389 383.192C527.272 384.136 527.143 385.08 527.078 386.024C526.885 388.761 527.201 391.511 526.943 394.231C526.808 395.703 526.503 397.163 526.245 398.599C525.099 405.01 524.764 411.539 525.248 418.034C526.058 428.839 523.577 439.65 524.703 450.425C524.839 452.521 524.723 454.625 524.357 456.693C524.147 457.975 523.843 459.241 523.448 460.48C522.591 463.415 521.731 466.346 520.867 469.274C520.765 469.719 520.565 470.136 520.28 470.493C519.981 470.752 519.63 470.944 519.251 471.056C518.872 471.168 518.473 471.198 518.081 471.144C514.696 471.039 511.512 469.579 508.438 468.154C508.085 468.015 507.757 467.817 507.47 467.568C506.831 466.905 506.884 465.862 506.602 464.988C506.321 464.115 505.558 463.294 505.124 462.397C504.767 461.548 504.551 460.647 504.485 459.729C504.094 456.728 503.828 453.714 503.687 450.689C503.464 446.433 506.28 442.517 507.206 438.377C508.966 430.24 507.476 421.516 510.602 413.795C511.588 411.356 510.157 408.401 510.016 405.775C509.965 404.081 509.745 402.395 509.359 400.745C508.772 398.54 507.535 396.465 507.447 394.179C507.382 392.525 507.916 390.913 508.192 389.283C508.558 386.885 508.524 384.442 508.092 382.054C507.781 380.085 507.306 378.115 506.831 376.192L506.725 376.409C505.296 379.201 504.067 382.09 503.048 385.056C502.579 386.493 502.168 387.958 501.582 389.354C501.101 390.526 500.508 391.599 499.928 392.701C497.845 396.588 496.032 400.613 494.502 404.749C493.775 406.777 493.135 408.853 492.502 410.887L488.156 424.958C486.983 428.657 485.698 432.233 484.549 435.927C482.924 441.203 481.299 446.433 479.411 451.592C477.651 456.487 475.557 461.559 476.185 466.729C474.567 467.489 472.791 467.849 471.005 467.779C467.982 467.512 465.017 466.792 462.207 465.645C461.087 465.229 459.926 464.76 459.169 463.839C457.867 462.25 458.19 459.923 458.583 457.9C458.731 456.989 458.966 456.093 459.287 455.227C459.732 454.148 460.46 453.192 460.917 452.125C461.838 450.079 461.897 447.764 462.26 445.542C462.624 443.32 463.433 440.975 465.334 439.767C465.656 435.862 467.263 432.011 468.149 428.194C468.818 425.304 469.041 422.331 469.568 419.4C470.096 416.469 470.947 413.537 472.718 411.163C472.578 408.714 473.131 406.276 474.314 404.128C474.599 403.656 474.833 403.154 475.012 402.633C475.121 402.123 475.184 401.605 475.199 401.085C475.393 399.048 476.265 397.134 477.674 395.65C477.088 393.51 477.903 391.276 478.636 389.201C479.56 386.553 479.978 383.755 479.868 380.952C479.777 380.17 479.815 379.378 479.979 378.607C480.144 378.021 480.466 377.523 480.654 376.96C480.821 376.27 480.91 375.564 480.918 374.855C481.147 371.683 482.431 368.693 483.851 365.862C484.695 364.208 483.98 361.963 484.156 360.122C484.461 357.062 484.795 353.896 486.314 351.228C486.596 350.724 486.901 350.243 487.153 349.722C487.458 348.977 487.623 348.182 487.64 347.377C487.692 346.034 487.88 344.92 487.399 343.671C490.537 341.062 494.819 340.33 498.901 340.154C502.983 339.978 507.113 340.347 511.107 339.48C512.28 339.216 513.453 338.852 514.691 338.676C517.5 338.266 520.351 338.905 523.125 339.538C522.931 341.297 523.577 342.985 524.298 344.621C527.115 351.247 528.592 358.364 528.644 365.563Z" fill="#33313F"/>
<path opacity="0.1" d="M514.831 366.905L508.092 382.054C507.781 380.085 507.306 378.115 506.831 376.192L506.726 376.409V376.092L510.397 368.019L514.831 366.905Z" fill="#1B89CA"/>
<path opacity="0.1" d="M535.026 335.258C534.637 335.549 534.173 335.722 533.689 335.757C532.946 335.783 532.204 335.682 531.495 335.458L526.216 334.139C526.051 334.098 525.889 334.041 525.735 333.969C525.823 333.048 525.999 331.981 526.498 331.624C527.242 331.125 529.471 331.794 530.316 331.911C531.771 332.11 533.249 332.345 534.668 332.62C534.888 333.483 535.008 334.368 535.026 335.258Z" fill="#1B89CA"/>
<path d="M539.49 300.375C539.601 300.862 539.759 301.343 539.853 301.835C540.011 303.043 539.969 304.269 539.73 305.464L539.249 308.818L538.768 312.189L536.909 325.163L536.451 328.376L535.806 332.861C535.776 333.234 535.68 333.599 535.525 333.939C535.332 334.258 535.064 334.524 534.744 334.713C534.423 334.903 534.061 335.009 533.689 335.024C532.946 335.048 532.204 334.946 531.495 334.725L526.216 333.4C525.985 333.359 525.765 333.269 525.571 333.136C525.41 332.979 525.293 332.781 525.233 332.564C525.174 332.346 525.173 332.117 525.231 331.899C525.307 331.454 525.501 331.037 525.565 330.592C525.694 329.724 525.331 328.833 525.46 327.971C525.586 327.422 525.783 326.892 526.046 326.394C527.806 322.507 526.785 317.969 527.383 313.748C527.922 310.426 529.326 307.304 531.454 304.696C532.767 303.05 534.276 301.57 535.947 300.287C536.604 299.777 537.648 298.728 538.475 298.529C539.536 298.306 539.314 299.637 539.49 300.375Z" fill="white"/>
<path d="M499.54 249.874C499.153 251.105 499.757 252.459 499.482 253.714C499.183 255.098 497.881 256.059 497.511 257.449C496.925 259.565 498.719 261.494 500.033 263.253C504.901 269.784 504.262 278.824 502.596 286.791C501.256 293.184 499.402 299.458 497.054 305.552C496.32 307.446 495.511 309.369 494.068 310.788C496.766 310.014 499.634 309.234 502.338 309.984C505.764 310.934 508.72 314.258 512.192 313.502C514.28 313.039 515.746 311.186 517.623 310.16C521.143 308.267 525.383 309.457 529.307 310.066C530.153 310.266 531.037 310.221 531.859 309.937C532.486 309.6 533.019 309.11 533.407 308.513C535.158 306.267 536.207 303.555 536.422 300.715C536.515 299.302 536.306 297.884 535.809 296.557C535.313 295.23 534.54 294.024 533.542 293.018C532.709 292.232 531.712 291.599 531.073 290.673C530.451 289.591 530.118 288.367 530.105 287.12C529.641 280.671 531.213 274.087 529.595 267.849C529.008 265.627 528.052 263.499 527.794 261.224C527.471 258.393 528.24 255.362 527.113 252.77C526.228 250.712 524.275 249.253 522.169 248.502C520.063 247.752 517.811 247.541 515.576 247.33C512.362 247.06 500.884 245.682 499.54 249.874Z" fill="#33313F"/>
<g opacity="0.1">
<path opacity="0.1" d="M502.596 286.791C501.263 293.157 499.419 299.406 497.083 305.476C497.488 304.673 497.828 303.828 498.15 302.99C500.502 296.896 502.356 290.622 503.693 284.229C505.365 276.256 506.004 267.228 501.136 260.691C499.963 259.131 498.455 257.443 498.508 255.614C498.075 256.167 497.738 256.789 497.511 257.455C496.925 259.571 498.719 261.5 500.033 263.259C504.902 269.784 504.262 278.824 502.596 286.791Z" fill="#1B89CA"/>
<path opacity="0.1" d="M499.552 253.122C500.023 252.538 500.374 251.866 500.585 251.146C500.675 250.275 500.652 249.396 500.514 248.531C500.062 248.871 499.723 249.339 499.541 249.874C499.195 250.912 499.593 252.037 499.552 253.122Z" fill="#1B89CA"/>
<path opacity="0.1" d="M534.51 305.933C534.121 306.529 533.589 307.017 532.961 307.352C532.141 307.641 531.255 307.686 530.41 307.481C526.486 306.895 522.198 305.687 518.726 307.581C516.843 308.601 515.383 310.453 513.289 310.922C509.822 311.696 506.866 308.372 503.441 307.405C501.013 306.73 498.455 307.287 496.01 307.991C495.524 309.027 494.867 309.974 494.068 310.793C496.766 310.019 499.634 309.24 502.338 309.99C505.764 310.94 508.72 314.264 512.192 313.508C514.28 313.045 515.746 311.192 517.623 310.166C521.143 308.272 525.383 309.462 529.307 310.072C530.153 310.272 531.038 310.227 531.859 309.943C532.486 309.606 533.019 309.116 533.407 308.519C534.47 307.117 535.291 305.548 535.835 303.875C535.443 304.592 535 305.28 534.51 305.933Z" fill="#1B89CA"/>
</g>
<defs>
<linearGradient id="paint0_linear_0_1" x1="450.811" y1="359.043" x2="540.551" y2="359.043" gradientUnits="userSpaceOnUse">
<stop stop-color="#808080" stop-opacity="0.25"/>
<stop offset="0.54" stop-color="#808080" stop-opacity="0.12"/>
<stop offset="1" stop-color="#808080" stop-opacity="0.1"/>
</linearGradient>
</defs>
</svg>
